<?xml version="1.0" encoding="utf-8"?><!DOCTYPE svg PUBLIC "-//W3C//DTD SVG 1.1//EN" "http://www.w3.org/Graphics/SVG/1.1/DTD/svg11.dtd"><svg width="192" height="128" viewBox="0 0 192 128" xmlns="http://www.w3.org/2000/svg" xmlns:xlink="http://www.w3.org/1999/xlink"><svg width="64" height="64" viewBox="0 0 24 24" fill="none" id="chess-king-svgrepo-c" xmlns="http://www.w3.org/2000/svg"><path fill-rule="evenodd" clip-rule="evenodd" d="M12 0a1 1 0 0 1 1 1v1h1a1 1 0 1 1 0 2h-1v2.134c1.187.329 2.116 1.234 2.61 2.402 1.179-.83 2.405-1.205 3.58-1.148 1.627.078 2.99.983 3.792 2.316 1.545 2.564.972 6.442-2.726 9.573l.915 1.829A2 2 0 0 1 19.382 24H4.618a2 2 0 0 1-1.789-2.894l.914-1.829c-3.697-3.13-4.27-7.009-2.725-9.573C1.82 8.37 3.183 7.466 4.81 7.388c1.175-.057 2.4.319 3.58 1.148C8.884 7.368 9.813 6.463 11 6.134V4h-1a1 1 0 1 1 0-2h1V1a1 1 0 0 1 1-1ZM8.013 10.81C6.84 9.692 5.75 9.345 4.907 9.385c-.904.044-1.687.538-2.176 1.35-.929 1.543-.853 4.53 2.61 7.265h5.103a69.754 69.754 0 0 1-.87-2.046 38.6 38.6 0 0 1-1.06-2.896c-.243-.78-.449-1.582-.501-2.248ZM13.556 18h5.104c3.462-2.735 3.538-5.722 2.61-7.264-.49-.813-1.273-1.307-2.177-1.35-.843-.041-1.934.306-3.106 1.424-.052.666-.257 1.468-.501 2.248a38.622 38.622 0 0 1-1.06 2.896 69.84 69.84 0 0 1-.87 2.046Zm4.826 2H5.618l-1 2h14.764l-1-2ZM12 16.569c.182-.421.378-.885.573-1.366.37-.912.734-1.877 1.004-2.741.28-.895.423-1.575.423-1.962l-.001-.09C13.959 8.88 12.96 8 12 8c-.96 0-1.959.88-1.999 2.41L10 10.5c0 .387.144 1.067.423 1.962.27.864.634 1.829 1.004 2.74.195.482.39.946.573 1.367Z" fill="#000"/></svg><svg width="64" height="64" viewBox="0 0 32 32" data-name="Lager 29" transform="rotate(270)" id="down-arrow-circle-sv" x="64" xmlns="http://www.w3.org/2000/svg"><g data-name="Group 8" fill="#040405"><path data-name="Path 33" d="M20.587 14.613 18 17.246V9.98A1.979 1.979 0 0 0 16.02 8h-.04A1.979 1.979 0 0 0 14 9.98v6.963l-.26-.042-2.248-2.227a2.091 2.091 0 0 0-2.657-.293A1.973 1.973 0 0 0 8.58 17.4l6.074 6.016a2.017 2.017 0 0 0 2.833 0l5.934-6a1.97 1.97 0 0 0 0-2.806 2.016 2.016 0 0 0-2.834.003Z"/><path data-name="Path 34" d="M16 0a16 16 0 1 0 16 16A16 16 0 0 0 16 0Zm0 28a12 12 0 1 1 12-12 12.013 12.013 0 0 1-12 12Z"/></g></svg><svg width="64" height="64" viewBox="0 0 24 24" data-name="Flat Line" class="cicon cflat-line" id="goal-2-svgrepo-com-7" y="64" xmlns="http://www.w3.org/2000/svg"><path d="M18.7 19.38a1 1 0 0 1-.78 1.62H6.08a1 1 0 0 1-.78-1.62L12 11Z" style="fill:#2ca9bc;stroke-width:2"/><path d="M12 11V3m6 1h-6v4h6l-1-2Zm-6 7-6.7 8.38A1 1 0 0 0 6.08 21h11.84a1 1 0 0 0 .78-1.62Z" style="fill:none;stroke:#000;stroke-linecap:round;stroke-linejoin:round;stroke-width:2"/></svg><svg height="64" width="64" version="1.1" id="left-arrow-svgrepo-c" viewBox="0 0 512 512" xml:space="preserve" fill="#000" x="64" y="64" xmlns="http://www.w3.org/2000/svg"><g id="dSVGRepo_iconCarrier"><style>.dst0{fill:#000}</style><path class="dst0" d="m154.52 265.848 90.964 69.014c2.329 1.766 4.674 2.702 6.78 2.702 2.148 0 4.022-.974 5.276-2.741 1.199-1.688 1.807-3.99 1.807-6.844v-26.424c0-6.952 5.656-12.608 12.607-12.608h75.036c8.705 0 15.788-7.085 15.788-15.788v-34.313c0-8.703-7.083-15.788-15.788-15.788h-75.036c-6.951 0-12.607-5.656-12.607-12.608v-26.425c0-7.065-3.659-9.584-7.082-9.584-2.106 0-4.451.936-6.78 2.702l-90.964 69.014c-3.416 2.59-5.297 6.087-5.297 9.849-.001 3.756 1.879 7.253 5.296 9.842z"/><path class="dst0" d="M256 0C114.842 0 .002 114.84.002 256S114.842 512 256 512s255.998-114.84 255.998-256S397.158 0 256 0zm0 66.785c104.334 0 189.216 84.879 189.216 189.215S360.334 445.215 256 445.215 66.783 360.336 66.783 256 151.667 66.785 256 66.785z"/></g></svg><svg height="64" width="64" version="1.1" id="right-arrow-svgrepo-" viewBox="0 0 512 512" xml:space="preserve" fill="#000" x="128" xmlns="http://www.w3.org/2000/svg"><g id="eSVGRepo_iconCarrier"><style>.est0{fill:#000}</style><path class="est0" d="M165.013 288.946h75.034c6.953 0 12.609 5.656 12.609 12.608v26.424c0 7.065 3.659 9.585 7.082 9.585 2.106 0 4.451-.936 6.78-2.702l90.964-69.014c3.416-2.589 5.297-6.087 5.297-9.844 0-3.762-1.881-7.259-5.297-9.849l-90.964-69.014c-2.329-1.766-4.674-2.702-6.78-2.702-3.424 0-7.082 2.519-7.082 9.584v26.425c0 6.952-5.656 12.608-12.609 12.608h-75.034c-8.707 0-15.79 7.085-15.79 15.788v34.313c0 8.706 7.082 15.79 15.79 15.79z"/><path class="est0" d="M256 0C114.842 0 .002 114.84.002 256S114.842 512 256 512s255.998-114.84 255.998-256S397.158 0 256 0zm0 66.785c104.334 0 189.216 84.879 189.216 189.215S360.334 445.215 256 445.215 66.783 360.336 66.783 256 151.667 66.785 256 66.785z"/></g></svg><svg height="64" width="64" version="1.1" id="up-arrow-svgrepo-com" viewBox="0 0 512 512" xml:space="preserve" fill="#000" x="128" y="64" xmlns="http://www.w3.org/2000/svg"><g id="fSVGRepo_iconCarrier"><style>.fst0{fill:#000}</style><path class="fst0" d="M184.025 259.35h26.422c6.953 0 12.609 5.652 12.609 12.605v75.034c0 8.708 7.082 15.792 15.788 15.792h34.314c8.706 0 15.786-7.084 15.786-15.792v-75.034c0-6.952 5.658-12.605 12.611-12.605h26.422c4.412 0 7.584-1.494 8.93-4.208 1.347-2.71.619-6.141-2.046-9.658l-69.012-90.966c-2.591-3.412-6.089-5.295-9.85-5.295-3.76 0-7.258 1.883-9.849 5.295l-69.012 90.966c-2.667 3.517-3.393 6.949-2.046 9.658 1.347 2.714 4.521 4.208 8.933 4.208z"/><path class="fst0" d="M256 0C114.842 0 .002 114.84.002 256S114.842 512 256 512s255.998-114.84 255.998-256S397.158 0 256 0zm0 66.785c104.334 0 189.216 84.879 189.216 189.215S360.334 445.215 256 445.215 66.783 360.336 66.783 256 151.667 66.785 256 66.785z"/></g></svg></svg>